<svg xmlns="http://www.w3.org/2000/svg" viewBox="0 0 73.01 46.87"><defs><style>.cls-1{fill:#fff;}</style></defs><title>Asset 3</title><g id="Layer_2" data-name="Layer 2"><g id="OBJECTS"><path class="cls-1" d="M58.67,31.58a13,13,0,0,0,.08-1.4,12,12,0,0,0-12-12c-.3,0-.58,0-.87,0A15.2,15.2,0,0,0,15.94,22c0,.35,0,.7.05,1.05a9.08,9.08,0,0,0-.91-.05,9.48,9.48,0,0,0-9.44,8.66A7.77,7.77,0,0,0,7.78,46.87H56.7a7.77,7.77,0,0,0,2-15.29Z"/><path class="cls-1" d="M70.74,9.71a4.93,4.93,0,0,0,0-.55,4.69,4.69,0,0,0-4.69-4.69h-.34A6,6,0,0,0,54,6c0,.14,0,.28,0,.41l-.35,0A3.72,3.72,0,0,0,50,9.73a3,3,0,0,0,.84,6H70a3,3,0,0,0,.77-6Z"/></g></g></svg>