<svg xmlns="http://www.w3.org/2000/svg" viewBox="0 0 64.48 62.85"><defs><style>.cls-1{fill:#fff;}</style></defs><title>Asset 5</title><g id="Layer_2" data-name="Layer 2"><g id="OBJECTS"><path class="cls-1" d="M58.67,24.83a13,13,0,0,0,.08-1.4,12,12,0,0,0-12-12c-.3,0-.58,0-.87,0a15.2,15.2,0,0,0-29.94,3.75c0,.36,0,.71.05,1.06a9.08,9.08,0,0,0-.91-.05,9.47,9.47,0,0,0-9.44,8.65A7.77,7.77,0,0,0,7.78,40.11H56.7a7.77,7.77,0,0,0,2-15.28Z"/><path class="cls-1" d="M45.48,44c-.76-.47-5.86,1.92-7.89,4a2.79,2.79,0,1,0,3.95,4C43.57,49.84,46,44.75,45.48,44Z"/><path class="cls-1" d="M34.67,52.79c-.76-.47-5.86,1.92-7.89,4a2.79,2.79,0,0,0,3.95,4C32.76,58.66,35.16,53.57,34.67,52.79Z"/><path class="cls-1" d="M46.48,54.12c-.76-.47-5.85,1.92-7.89,4a2.79,2.79,0,1,0,3.95,4C44.58,60,47,54.9,46.48,54.12Z"/><path class="cls-1" d="M35.69,44.72a.66.66,0,0,0-.58-.54l-4-.48,8.69-7.46a.67.67,0,0,0,.18-.76.66.66,0,0,0-.67-.4l-3.56.27a.68.68,0,0,0-.38.16L24.34,45a.65.65,0,0,0-.2.71.65.65,0,0,0,.58.46l2.15.16-5.76,5a.65.65,0,0,0-.12.87l.05.07a.65.65,0,0,0,.8.15l13.5-6.9A.66.66,0,0,0,35.69,44.72Z"/></g></g></svg>