<svg xmlns="http://www.w3.org/2000/svg" viewBox="0 0 67.43 50.2"><defs><style>.cls-1{fill:#fff;}</style></defs><title>Asset 2</title><g id="Layer_2" data-name="Layer 2"><g id="OBJECTS"><path class="cls-1" d="M58.67,34.91a12.85,12.85,0,0,0,.08-1.4,12,12,0,0,0-12-12c-.3,0-.58,0-.87,0A15.2,15.2,0,0,0,15.94,25.3c0,.36,0,.7.05,1.05a9.1,9.1,0,0,0-.91,0A9.47,9.47,0,0,0,5.64,35,7.77,7.77,0,0,0,7.78,50.2H56.7a7.77,7.77,0,0,0,2-15.29Z"/><path class="cls-1" d="M56.35,19.45a8.37,8.37,0,1,1,8.37-8.37A8.39,8.39,0,0,1,56.35,19.45Z"/><path class="cls-1" d="M56.42,3.53A.44.44,0,0,1,56,3.09V.43a.44.44,0,0,1,.87,0V3.09A.44.44,0,0,1,56.42,3.53Z"/><path class="cls-1" d="M62.05,5.92a.43.43,0,0,1-.3-.13.43.43,0,0,1,0-.61L63.63,3.3a.43.43,0,1,1,.61.61L62.36,5.79A.48.48,0,0,1,62.05,5.92Z"/><path class="cls-1" d="M67,11.58H64.34a.43.43,0,0,1,0-.86H67a.43.43,0,1,1,0,.86Z"/><path class="cls-1" d="M63.83,19.09a.42.42,0,0,1-.3-.12l-1.89-1.89a.45.45,0,0,1,0-.61.43.43,0,0,1,.61,0l1.89,1.89a.43.43,0,0,1,0,.61A.47.47,0,0,1,63.83,19.09Z"/><path class="cls-1" d="M56.28,22.16a.43.43,0,0,1-.43-.43V19.07a.43.43,0,0,1,.86,0v2.66A.43.43,0,0,1,56.28,22.16Z"/><path class="cls-1" d="M48.77,19a.39.39,0,0,1-.3-.13.43.43,0,0,1,0-.61l1.88-1.88A.43.43,0,0,1,51,17l-1.88,1.88A.43.43,0,0,1,48.77,19Z"/><path class="cls-1" d="M48.37,11.44H45.7a.43.43,0,0,1,0-.86h2.67a.43.43,0,0,1,0,.86Z"/><path class="cls-1" d="M50.76,5.81a.47.47,0,0,1-.31-.12L48.57,3.81a.44.44,0,0,1,0-.62.45.45,0,0,1,.61,0l1.88,1.89a.43.43,0,0,1,0,.61A.42.42,0,0,1,50.76,5.81Z"/><path class="cls-1" d="M53.22,4.2a.43.43,0,0,1-.57-.2L51.52,1.58a.43.43,0,0,1,.79-.36l1.12,2.41A.42.42,0,0,1,53.22,4.2Z"/><path class="cls-1" d="M59.33,4A.42.42,0,0,1,59,4a.45.45,0,0,1-.26-.56L59.65,1a.44.44,0,1,1,.82.3l-.91,2.5A.45.45,0,0,1,59.33,4Z"/><path class="cls-1" d="M66.22,7,63.8,8.16a.43.43,0,1,1-.36-.78l2.41-1.13a.43.43,0,0,1,.37.78Z"/><path class="cls-1" d="M66.52,15.18a.42.42,0,0,1-.33,0l-2.5-.91a.43.43,0,0,1-.26-.55.43.43,0,0,1,.55-.26l2.5.91a.43.43,0,0,1,0,.8Z"/><path class="cls-1" d="M61,21.15a.43.43,0,0,1-.57-.21l-1.13-2.41a.43.43,0,0,1,.21-.57.44.44,0,0,1,.58.21l1.12,2.41A.43.43,0,0,1,61,21.15Z"/><path class="cls-1" d="M52.83,21.45a.42.42,0,0,1-.33,0,.43.43,0,0,1-.26-.55l.91-2.51a.42.42,0,0,1,.55-.25.43.43,0,0,1,.26.55l-.91,2.5A.4.4,0,0,1,52.83,21.45Z"/><path class="cls-1" d="M49.27,14.78l-2.42,1.13a.43.43,0,0,1-.36-.78L48.9,14a.43.43,0,1,1,.37.78Z"/><path class="cls-1" d="M49.05,8.67a.42.42,0,0,1-.33,0l-2.5-.91a.43.43,0,1,1,.3-.81l2.5.91a.43.43,0,0,1,.26.55A.42.42,0,0,1,49.05,8.67Z"/></g></g></svg>