<svg xmlns="http://www.w3.org/2000/svg" viewBox="0 0 64.48 62.85"><defs><style>.cls-1{fill:#fff;}</style></defs><title>Asset 4</title><g id="Layer_2" data-name="Layer 2"><g id="OBJECTS"><path class="cls-1" d="M58.67,24.83a13,13,0,0,0,.08-1.4,12,12,0,0,0-12-12c-.3,0-.58,0-.87,0a15.2,15.2,0,0,0-29.94,3.75c0,.36,0,.71.05,1.06a9.08,9.08,0,0,0-.91-.05,9.47,9.47,0,0,0-9.44,8.65A7.77,7.77,0,0,0,7.78,40.11H56.7a7.77,7.77,0,0,0,2-15.28Z"/><path class="cls-1" d="M20.54,44.73c-.76-.47-5.85,1.92-7.89,4a2.79,2.79,0,1,0,4,4C18.64,50.6,21,45.51,20.54,44.73Z"/><path class="cls-1" d="M44.15,44.73c-.76-.47-5.85,1.92-7.89,4a2.79,2.79,0,0,0,4,4C42.25,50.6,44.64,45.51,44.15,44.73Z"/><path class="cls-1" d="M33.15,54.12c-.76-.47-5.85,1.92-7.89,4a2.79,2.79,0,1,0,3.95,4C31.25,60,33.64,54.9,33.15,54.12Z"/><path class="cls-1" d="M22,54.12c-.76-.47-5.86,1.92-7.89,4a2.79,2.79,0,0,0,3.95,4C20.11,60,22.51,54.9,22,54.12Z"/><path class="cls-1" d="M32.62,43.12c-.76-.47-5.86,1.92-7.9,4a2.79,2.79,0,0,0,4,4C30.71,49,33.1,43.9,32.62,43.12Z"/></g></g></svg>