<svg xmlns="http://www.w3.org/2000/svg" viewBox="0 0 42.64 42.64"><defs><style>.cls-1{fill:#fff;}</style></defs><title>Asset 1</title><g id="Layer_2" data-name="Layer 2"><g id="OBJECTS"><path class="cls-1" d="M21.32,37.42a16.1,16.1,0,1,1,16.1-16.1A16.12,16.12,0,0,1,21.32,37.42Z"/><path class="cls-1" d="M21.46,6.78A.83.83,0,0,1,20.63,6V.83a.83.83,0,0,1,1.66,0V6A.83.83,0,0,1,21.46,6.78Z"/><path class="cls-1" d="M32.29,11.38a.82.82,0,0,1-.59-.24.82.82,0,0,1,0-1.17l3.62-3.63A.83.83,0,0,1,36.5,7.52l-3.63,3.62A.82.82,0,0,1,32.29,11.38Z"/><path class="cls-1" d="M41.81,22.29H36.69a.83.83,0,1,1,0-1.66h5.12a.83.83,0,1,1,0,1.66Z"/><path class="cls-1" d="M35.71,36.74a.86.86,0,0,1-.59-.24L31.5,32.87a.83.83,0,0,1,1.18-1.17l3.62,3.62a.83.83,0,0,1-.59,1.42Z"/><path class="cls-1" d="M21.18,42.64a.83.83,0,0,1-.83-.83V36.69a.83.83,0,1,1,1.66,0v5.12A.83.83,0,0,1,21.18,42.64Z"/><path class="cls-1" d="M6.73,36.54a.83.83,0,0,1-.58-1.41L9.77,31.5a.83.83,0,0,1,1.17,1.18L7.32,36.3A.82.82,0,0,1,6.73,36.54Z"/><path class="cls-1" d="M6,22H.83a.83.83,0,1,1,0-1.66H6A.83.83,0,1,1,6,22Z"/><path class="cls-1" d="M10.55,11.19a.83.83,0,0,1-.59-.25L6.34,7.32A.83.83,0,0,1,7.52,6.15l3.62,3.62a.83.83,0,0,1,0,1.17A.81.81,0,0,1,10.55,11.19Z"/><path class="cls-1" d="M15.3,8.09a.83.83,0,0,1-1.1-.4L12,3.05a.83.83,0,0,1,1.51-.71L15.7,7A.82.82,0,0,1,15.3,8.09Z"/><path class="cls-1" d="M27.06,7.68a.83.83,0,0,1-.64,0,.85.85,0,0,1-.5-1.07l1.75-4.81a.84.84,0,0,1,1.57.57L27.48,7.21A.78.78,0,0,1,27.06,7.68Z"/><path class="cls-1" d="M40.3,13.54,35.66,15.7a.83.83,0,1,1-.7-1.5L39.6,12a.83.83,0,0,1,.7,1.51Z"/><path class="cls-1" d="M40.88,29.21a.85.85,0,0,1-.63,0l-4.82-1.76a.82.82,0,0,1-.49-1.06.83.83,0,0,1,1.06-.5l4.81,1.75a.84.84,0,0,1,.5,1.07A.86.86,0,0,1,40.88,29.21Z"/><path class="cls-1" d="M30.21,40.7a.82.82,0,0,1-1.1-.4l-2.17-4.64a.83.83,0,1,1,1.51-.7l2.16,4.64A.82.82,0,0,1,30.21,40.7Z"/><path class="cls-1" d="M14.54,41.28a.83.83,0,0,1-.64,0,.82.82,0,0,1-.49-1.06l1.75-4.82a.83.83,0,0,1,1.56.57L15,40.81A.83.83,0,0,1,14.54,41.28Z"/><path class="cls-1" d="M7.69,28.45,3.05,30.61a.83.83,0,1,1-.71-1.5L7,26.94a.83.83,0,1,1,.71,1.51Z"/><path class="cls-1" d="M7.28,16.69a.83.83,0,0,1-.64,0L1.83,15a.83.83,0,1,1,.57-1.56l4.81,1.75a.83.83,0,0,1,.07,1.53Z"/></g></g></svg>